<?xml version="1.0" encoding="UTF-8" ?>
<!DOCTYPE svg PUBLIC "-//W3C//DTD SVG 1.1//EN" "http://www.w3.org/Graphics/SVG/1.1/DTD/svg11.dtd">
<svg width="199pt" height="159pt" viewBox="0 0 199 159" version="1.1" xmlns="http://www.w3.org/2000/svg">
<path fill="#ffffff" d=" M 0.00 0.00 L 199.00 0.00 L 199.00 159.00 L 0.00 159.00 L 0.00 0.00 Z" />
<path fill="#1466a4" d=" M 121.25 48.02 C 119.55 37.43 132.30 28.29 141.80 33.17 C 150.20 36.49 153.51 47.96 148.37 55.32 C 145.88 59.45 141.30 61.40 136.90 62.81 C 143.01 67.63 144.68 75.92 142.69 83.21 C 150.52 87.36 159.62 85.61 168.00 84.59 C 170.98 84.20 173.87 85.12 176.74 85.76 C 176.80 87.10 176.84 88.43 176.89 89.77 C 168.87 94.00 159.77 95.30 150.99 97.08 C 146.39 98.26 141.93 95.93 137.78 94.24 C 136.14 96.98 134.47 99.72 133.06 102.61 C 137.31 105.63 141.22 109.13 145.56 112.03 C 151.33 114.92 156.77 118.40 162.06 122.09 C 166.55 125.10 168.68 130.27 171.36 134.75 C 173.41 138.70 176.48 142.99 174.65 147.64 C 172.93 147.68 171.20 147.71 169.48 147.73 C 165.46 142.14 161.32 136.27 155.08 132.97 C 149.61 130.07 143.72 128.02 138.52 124.62 C 132.15 124.24 125.84 123.30 119.57 122.17 C 117.74 124.51 115.57 126.61 112.90 127.96 C 105.56 131.98 98.18 136.29 89.97 138.23 C 83.19 138.70 77.37 134.35 71.68 131.27 C 68.29 129.06 63.87 131.79 60.50 129.40 C 44.55 120.59 29.62 108.44 21.51 91.75 C 19.48 86.71 17.04 81.61 17.06 76.05 C 16.97 72.10 16.75 68.09 17.47 64.18 C 19.90 56.64 25.66 50.20 33.01 47.16 C 38.04 44.95 43.69 45.32 49.06 45.57 C 54.80 45.89 59.43 49.54 64.08 52.49 C 68.51 50.75 72.06 46.89 76.96 46.03 C 84.57 44.84 93.07 44.74 99.75 49.17 C 104.81 51.75 107.77 56.72 110.77 61.30 C 116.92 61.38 123.11 63.49 129.13 61.30 C 125.48 57.67 120.76 53.74 121.25 48.02 Z" />
<path fill="#d3e3f2" d=" M 125.55 41.42 C 127.11 37.49 131.33 35.22 135.48 35.29 C 135.28 37.40 135.03 39.50 134.73 41.60 C 135.40 41.59 136.72 41.57 137.39 41.56 C 134.72 45.79 129.65 47.05 125.18 48.42 C 125.32 46.09 125.22 43.74 125.55 41.42 Z" />
<path fill="#ffffff" d=" M 138.50 40.09 C 141.49 40.76 144.83 41.07 147.28 43.05 C 148.63 48.80 146.70 55.75 140.83 58.11 C 136.37 59.17 130.71 59.38 127.45 55.54 C 125.45 53.81 124.92 51.13 124.13 48.73 L 125.18 48.42 C 129.65 47.05 134.72 45.79 137.39 41.56 C 137.67 41.19 138.22 40.46 138.50 40.09 Z" />
<path fill="#ffffff" d=" M 34.36 52.73 C 39.31 50.71 44.86 51.23 50.07 51.62 C 55.86 52.42 59.49 57.38 63.98 60.54 C 65.96 60.46 67.18 58.66 68.57 57.51 C 71.88 54.23 76.16 51.52 80.95 51.40 C 86.14 51.19 91.74 50.91 96.36 53.70 C 99.63 55.28 101.95 58.14 103.87 61.13 C 101.13 61.98 98.32 62.65 95.71 63.84 C 92.24 65.28 91.74 69.59 90.59 72.73 C 88.54 81.13 84.88 89.94 87.58 98.62 C 88.93 98.31 90.71 98.85 91.75 97.79 C 97.07 90.73 96.67 80.75 102.76 74.15 C 103.50 74.47 104.98 75.09 105.72 75.40 C 105.64 83.96 101.36 91.72 96.56 98.54 C 90.02 106.84 82.24 114.52 72.98 119.72 C 68.92 119.49 65.76 115.94 61.53 116.12 C 60.37 117.81 59.23 119.51 58.12 121.22 C 49.37 116.22 41.69 109.49 35.08 101.92 C 29.67 95.61 25.37 88.20 23.56 80.04 C 23.05 75.04 23.00 69.94 23.53 64.94 C 25.10 59.51 29.47 55.31 34.36 52.73 Z" />
<path fill="#ffffff" d=" M 95.03 69.15 C 96.16 65.37 100.83 65.57 103.95 64.63 C 111.00 64.16 118.62 63.55 125.11 66.89 C 127.45 67.90 126.55 70.98 126.77 73.00 C 127.05 77.13 124.22 81.58 120.01 82.32 C 118.12 82.38 116.28 81.86 114.43 81.54 C 114.48 78.50 114.55 75.46 114.57 72.41 C 110.30 71.44 105.82 71.25 101.50 71.94 C 99.24 72.19 98.12 74.33 97.25 76.17 C 95.30 80.59 93.98 85.25 92.51 89.84 C 91.91 89.77 90.73 89.62 90.13 89.54 C 90.78 82.56 92.59 75.71 95.03 69.15 Z" />
<path fill="#d3e3f2" d=" M 133.25 64.74 C 138.34 66.77 140.56 72.62 140.44 77.75 C 139.13 86.00 134.76 93.35 130.27 100.25 C 129.59 101.28 128.73 102.98 129.95 103.97 C 133.39 107.10 137.48 109.46 140.83 112.72 C 139.12 115.80 137.26 118.80 135.14 121.62 C 126.47 119.87 116.23 120.09 109.63 113.33 C 106.57 105.22 109.62 96.46 111.84 88.50 C 116.52 88.27 121.26 89.03 125.90 88.22 C 130.47 87.17 132.48 82.41 133.63 78.35 C 135.43 73.90 133.20 69.29 133.25 64.74 Z" />
<path fill="#e3322b" d=" M 134.72 78.22 C 135.62 75.90 136.77 73.69 138.18 71.63 C 139.06 73.88 139.57 76.24 139.79 78.65 C 138.10 78.48 136.41 78.34 134.72 78.22 Z" />
<path fill="#e3322b" d=" M 58.70 78.02 C 59.00 77.78 59.62 77.30 59.93 77.06 C 63.73 79.03 66.93 81.96 69.98 84.92 C 66.62 87.77 63.21 90.56 59.58 93.05 C 57.88 88.23 58.56 83.02 58.70 78.02 Z" />
<path fill="#ffffff" d=" M 143.45 88.32 C 150.64 88.65 157.86 88.89 165.01 87.89 C 167.41 87.41 169.74 88.26 172.01 88.93 C 165.40 90.92 158.67 92.51 151.91 93.92 C 149.04 94.66 146.10 94.06 143.24 93.56 C 143.30 91.81 143.37 90.07 143.45 88.32 Z" />
<path fill="#d3e3f2" d=" M 102.98 100.20 C 102.86 97.63 105.33 95.72 106.64 93.68 C 106.76 99.56 104.36 105.35 105.68 111.23 C 106.79 114.81 109.77 117.28 112.07 120.08 C 107.20 119.72 105.46 114.52 101.84 112.02 C 105.23 108.82 103.94 104.16 102.98 100.20 Z" />
<path fill="#ffffff" d=" M 78.66 123.22 C 87.97 116.93 95.84 108.81 102.98 100.20 C 103.94 104.16 105.23 108.82 101.84 112.02 C 97.78 116.28 93.43 120.37 88.51 123.64 C 85.50 125.70 81.72 124.52 78.66 123.22 Z" />
<path fill="#ffffff" d=" M 84.97 128.35 C 91.93 126.63 96.94 121.01 101.90 116.20 C 104.43 119.65 108.04 121.93 111.53 124.27 C 111.48 124.52 111.38 125.02 111.33 125.27 C 105.66 128.51 99.85 131.59 93.77 133.98 C 88.07 135.95 81.98 134.13 77.13 130.93 C 72.11 127.66 66.28 125.11 62.73 120.08 C 70.70 121.09 76.84 127.91 84.97 128.35 Z" />
<path fill="#ffffff" d=" M 147.19 116.13 C 151.57 118.90 155.90 121.75 160.19 124.66 C 163.12 126.51 164.85 129.59 166.59 132.48 C 168.77 136.24 171.24 140.02 171.76 144.44 C 168.36 141.45 166.10 137.41 162.67 134.46 C 156.93 129.34 149.24 127.42 142.85 123.31 C 144.23 120.87 145.66 118.47 147.19 116.13 Z" />
</svg>
